<svg xmlns="http://www.w3.org/2000/svg" xmlns:xlink="http://www.w3.org/1999/xlink" version="1.1" width="604.1" height="719.1" viewBox="67.9 95.2 604.1 719.1"><g><g transform="translate(68,158)"><g><g>
<path d="M536,0H0v561h536V0L536,0z" stroke="#000000" stroke-dasharray="none" fill="#FFFFFF"/>
<rect x="23.4" y="25.6" width="489.2" height="509.8" fill="none"/>
<circle fill="none" cx="268" cy="0" r="0.1"/>
<circle fill="none" cx="400.8" cy="0" r="0.1"/>
<circle fill="none" cx="536" cy="141.5" r="0.1"/>
<circle fill="none" cx="536" cy="280.5" r="0.1"/>
<circle fill="none" cx="536" cy="419.5" r="0.1"/>
<circle fill="none" cx="400.8" cy="561" r="0.1"/>
<circle fill="none" cx="268" cy="561" r="0.1"/>
<circle fill="none" cx="135.2" cy="561" r="0.1"/>
<circle fill="none" cx="0" cy="419.5" r="0.1"/>
<circle fill="none" cx="0" cy="280.5" r="0.1"/>
<circle fill="none" cx="0" cy="141.5" r="0.1"/>
<circle fill="none" cx="135.2" cy="0" r="0.1"/>
</g></g><rect stroke="none" stroke-width="1" fill="#FFFFFF" x="0" y="0" width="40" height="20" transform="translate(410.7,-62.1)"/><path stroke="#000000" fill="none" d="M400.8,0 C428.9,-7.6 396.9,-34.5 425 -42.1"/><text font-family="OpenSansCondensedLight" font-size="14pt" fill="black" transform="translate(410.7,-62.1)" text-anchor="middle"><tspan x="20" y="16.3">102</tspan></text><rect stroke-width="0" fill="none" width="489.2" height="509.8" transform="translate(23.4,25.6)"/><text font-family="OpenSansCondensedLight" font-size="14pt" fill="black" transform="translate(23.4,25.6)" text-anchor="middle"><tspan x="244.6" y="16.8">COMPUTER SYSTEM</tspan></text><path stroke="#000000" fill="none" transform="translate(23.4,25.6)" d="M 0 0"/></g><g transform="translate(281,621)"><g><g>
<path d="M272,0H0v68h272V0L272,0z" stroke="#000000" stroke-dasharray="5,5" fill="#FFFFFF"/>
<rect x="11.9" y="3.1" width="248.2" height="61.8" fill="none"/>
<circle fill="none" cx="136" cy="0" r="0.1"/>
<circle fill="none" cx="203.4" cy="0" r="0.1"/>
<circle fill="none" cx="272" cy="17.1" r="0.1"/>
<circle fill="none" cx="272" cy="34" r="0.1"/>
<circle fill="none" cx="272" cy="50.9" r="0.1"/>
<circle fill="none" cx="203.4" cy="68" r="0.1"/>
<circle fill="none" cx="136" cy="68" r="0.1"/>
<circle fill="none" cx="68.6" cy="68" r="0.1"/>
<circle fill="none" cx="0" cy="50.9" r="0.1"/>
<circle fill="none" cx="0" cy="34" r="0.1"/>
<circle fill="none" cx="0" cy="17.1" r="0.1"/>
<circle fill="none" cx="68.6" cy="0" r="0.1"/>
</g></g><rect stroke="none" stroke-width="0" fill="#FFFFFF" x="0" y="0" width="0" height="0" transform="translate(271.9,33.9)"/><path stroke="#000000" fill="none" d=""/><text font-family="OpenSansCondensedLight" font-size="14pt" fill="black" transform="translate(271.9,33.9)"/><rect stroke-width="0" fill="none" width="248.2" height="61.8" transform="translate(11.9,3.1)"/><text font-family="OpenSansCondensedLight" font-size="14pt" fill="black" transform="translate(11.9,3.1)" text-anchor="middle"><tspan x="124.1" y="26.7">COMMUNICATION</tspan><tspan x="124.1" y="47.7">INTERFACE 114</tspan></text><path stroke="#000000" fill="none" transform="translate(11.9,3.1)" d="M 163.4 50 190.7 50"/></g><g transform="translate(281,525)"><g><g>
<path d="M272,0H0v68h272V0L272,0z" stroke="#000000" stroke-dasharray="5,5" fill="#FFFFFF"/>
<rect x="11.9" y="3.1" width="248.2" height="61.8" fill="none"/>
<circle fill="none" cx="136" cy="0" r="0.1"/>
<circle fill="none" cx="203.4" cy="0" r="0.1"/>
<circle fill="none" cx="272" cy="17.1" r="0.1"/>
<circle fill="none" cx="272" cy="34" r="0.1"/>
<circle fill="none" cx="272" cy="50.9" r="0.1"/>
<circle fill="none" cx="203.4" cy="68" r="0.1"/>
<circle fill="none" cx="136" cy="68" r="0.1"/>
<circle fill="none" cx="68.6" cy="68" r="0.1"/>
<circle fill="none" cx="0" cy="50.9" r="0.1"/>
<circle fill="none" cx="0" cy="34" r="0.1"/>
<circle fill="none" cx="0" cy="17.1" r="0.1"/>
<circle fill="none" cx="68.6" cy="0" r="0.1"/>
</g></g><rect stroke="none" stroke-width="0" fill="#FFFFFF" x="0" y="0" width="0" height="0" transform="translate(271.9,33.9)"/><path stroke="#000000" fill="none" d=""/><text font-family="OpenSansCondensedLight" font-size="14pt" fill="black" transform="translate(271.9,33.9)"/><rect stroke-width="0" fill="none" width="248.2" height="61.8" transform="translate(11.9,3.1)"/><text font-family="OpenSansCondensedLight" font-size="14pt" fill="black" transform="translate(11.9,3.1)" text-anchor="middle"><tspan x="124.1" y="37.2">I/O INTERFACE 112</tspan></text><path stroke="#000000" fill="none" transform="translate(11.9,3.1)" d="M 178.2 39 205.5 39"/></g><g transform="translate(281,431)"><g><g>
<path d="M272,0H0v68h272V0L272,0z" stroke="#000000" stroke-dasharray="5,5" fill="#FFFFFF"/>
<rect x="11.9" y="3.1" width="248.2" height="61.8" fill="none"/>
<circle fill="none" cx="136" cy="0" r="0.1"/>
<circle fill="none" cx="203.4" cy="0" r="0.1"/>
<circle fill="none" cx="272" cy="17.1" r="0.1"/>
<circle fill="none" cx="272" cy="34" r="0.1"/>
<circle fill="none" cx="272" cy="50.9" r="0.1"/>
<circle fill="none" cx="203.4" cy="68" r="0.1"/>
<circle fill="none" cx="136" cy="68" r="0.1"/>
<circle fill="none" cx="68.6" cy="68" r="0.1"/>
<circle fill="none" cx="0" cy="50.9" r="0.1"/>
<circle fill="none" cx="0" cy="34" r="0.1"/>
<circle fill="none" cx="0" cy="17.1" r="0.1"/>
<circle fill="none" cx="68.6" cy="0" r="0.1"/>
</g></g><rect stroke="none" stroke-width="0" fill="#FFFFFF" x="0" y="0" width="0" height="0" transform="translate(271.9,33.9)"/><path stroke="#000000" fill="none" d=""/><text font-family="OpenSansCondensedLight" font-size="14pt" fill="black" transform="translate(271.9,33.9)"/><rect stroke-width="0" fill="none" width="248.2" height="61.8" transform="translate(11.9,3.1)"/><text font-family="OpenSansCondensedLight" font-size="14pt" fill="black" transform="translate(11.9,3.1)" text-anchor="middle"><tspan x="124.1" y="37.2">STORAGE 108</tspan></text><path stroke="#000000" fill="none" transform="translate(11.9,3.1)" d="M 155.3 39 183.3 39"/></g><g transform="translate(281,338)"><g><g>
<path d="M272,0H0v68h272V0L272,0z" stroke="#000000" stroke-dasharray="5,5" fill="#FFFFFF"/>
<rect x="11.9" y="3.1" width="248.2" height="61.8" fill="none"/>
<circle fill="none" cx="136" cy="0" r="0.1"/>
<circle fill="none" cx="203.4" cy="0" r="0.1"/>
<circle fill="none" cx="272" cy="17.1" r="0.1"/>
<circle fill="none" cx="272" cy="34" r="0.1"/>
<circle fill="none" cx="272" cy="50.9" r="0.1"/>
<circle fill="none" cx="203.4" cy="68" r="0.1"/>
<circle fill="none" cx="136" cy="68" r="0.1"/>
<circle fill="none" cx="68.6" cy="68" r="0.1"/>
<circle fill="none" cx="0" cy="50.9" r="0.1"/>
<circle fill="none" cx="0" cy="34" r="0.1"/>
<circle fill="none" cx="0" cy="17.1" r="0.1"/>
<circle fill="none" cx="68.6" cy="0" r="0.1"/>
</g></g><rect stroke="none" stroke-width="0" fill="#FFFFFF" x="0" y="0" width="0" height="0" transform="translate(271.9,33.9)"/><path stroke="#000000" fill="none" d=""/><text font-family="OpenSansCondensedLight" font-size="14pt" fill="black" transform="translate(271.9,33.9)"/><rect stroke-width="0" fill="none" width="248.2" height="61.8" transform="translate(11.9,3.1)"/><text font-family="OpenSansCondensedLight" font-size="14pt" fill="black" transform="translate(11.9,3.1)" text-anchor="middle"><tspan x="124.1" y="37.2">MEMORY 104</tspan></text><path stroke="#000000" fill="none" transform="translate(11.9,3.1)" d="M 153.9 39 181.9 39"/></g><g transform="translate(282,254)"><g><g>
<path d="M272,0H0v68h272V0L272,0z" stroke="#000000" stroke-dasharray="5,5" fill="#FFFFFF"/>
<rect x="11.9" y="3.1" width="248.2" height="61.8" fill="none"/>
<circle fill="none" cx="136" cy="0" r="0.1"/>
<circle fill="none" cx="203.4" cy="0" r="0.1"/>
<circle fill="none" cx="272" cy="17.1" r="0.1"/>
<circle fill="none" cx="272" cy="34" r="0.1"/>
<circle fill="none" cx="272" cy="50.9" r="0.1"/>
<circle fill="none" cx="203.4" cy="68" r="0.1"/>
<circle fill="none" cx="136" cy="68" r="0.1"/>
<circle fill="none" cx="68.6" cy="68" r="0.1"/>
<circle fill="none" cx="0" cy="50.9" r="0.1"/>
<circle fill="none" cx="0" cy="34" r="0.1"/>
<circle fill="none" cx="0" cy="17.1" r="0.1"/>
<circle fill="none" cx="68.6" cy="0" r="0.1"/>
</g></g><rect stroke="none" stroke-width="0" fill="#FFFFFF" x="0" y="0" width="0" height="0" transform="translate(271.9,33.9)"/><path stroke="#000000" fill="none" d=""/><text font-family="OpenSansCondensedLight" font-size="14pt" fill="black" transform="translate(271.9,33.9)"/><rect stroke-width="0" fill="none" width="248.2" height="61.8" transform="translate(11.9,3.1)"/><text font-family="OpenSansCondensedLight" font-size="14pt" fill="black" transform="translate(11.9,3.1)" text-anchor="middle"><tspan x="124.1" y="37.2">PROCESSOR 110</tspan></text><path stroke="#000000" fill="none" transform="translate(11.9,3.1)" d="M 166.2 39 193.5 39"/></g><g transform="translate(1,512)"><g transform="rotate(270,170.5,36)"><g>
<g fill="#FFFFFF">
    <rect y="0" width="341" height="64.8"/>
</g>
<g stroke="#000000" stroke-dasharray="none">
    <line fill="none" stroke-linejoin="round" x1="341" y1="64.8" x2="3.9" y2="64.8"/>
</g>
<polygon points="15.8,57.6 18.3,58.8 5.3,64.8 18.3,70.7 15.8,72 0,64.8"/>
<rect x="13.3" y="2.5" fill="none" width="314.3" height="59.7"/>
<circle fill="none" cx="181.2" cy="64.8" r="0.1"/>
<circle fill="none" cx="238.6" cy="64.8" r="0.1"/>
<circle fill="none" cx="296" cy="64.7" r="0.1"/>
<circle fill="none" cx="324.4" cy="64.7" r="0.1"/>
<circle fill="none" cx="267.2" cy="64.8" r="0.1"/>
<circle fill="none" cx="209.8" cy="64.8" r="0.1"/>
<circle fill="none" cx="152.5" cy="64.8" r="0.1"/>
<circle fill="none" cx="95.3" cy="64.8" r="0.1"/>
<circle fill="none" cx="37.7" cy="64.8" r="0.1"/>
<circle fill="none" cx="9" cy="64.8" r="0.1"/>
<circle fill="none" cx="66.4" cy="64.8" r="0.1"/>
<circle fill="none" cx="123.8" cy="64.8" r="0.1"/>
</g></g><rect stroke="none" stroke-width="0" fill="#FFFFFF" x="0" y="0" width="0" height="0" transform="translate(199.2,168.7)"/><path stroke="#000000" fill="none" d=""/><text font-family="OpenSansCondensedLight" font-size="14pt" fill="black" transform="translate(199.2,168.7)"/><rect stroke-width="0" fill="none" width="59.7" height="314.3" transform="translate(137,-121.2)"/><text font-family="OpenSansCondensedLight" font-size="14pt" fill="black" transform="translate(137,-121.2)" text-anchor="middle"><tspan x="29.9" y="163.5"> </tspan></text><path stroke="#000000" fill="none" transform="translate(137,-121.2)" d="M 0 0"/></g><g transform="translate(151,197)"><g><g>
<g fill="#FFFFFF">
    <rect y="0" width="52" height="30"/>
</g>
<g stroke="#000000" stroke-dasharray="none">
    <line fill="none" stroke-linejoin="round" x1="0" y1="30" x2="51.4" y2="30"/>
</g>
<rect x="2" y="1.2" fill="none" width="47.9" height="27.6"/>
<circle fill="none" cx="27.6" cy="30" r="0.1"/>
<circle fill="none" cx="36.4" cy="30" r="0.1"/>
<circle fill="none" cx="45.1" cy="30" r="0.1"/>
<circle fill="none" cx="49.5" cy="30" r="0.1"/>
<circle fill="none" cx="40.8" cy="30" r="0.1"/>
<circle fill="none" cx="32" cy="30" r="0.1"/>
<circle fill="none" cx="23.2" cy="30" r="0.1"/>
<circle fill="none" cx="14.5" cy="30" r="0.1"/>
<circle fill="none" cx="5.8" cy="30" r="0.1"/>
<circle fill="none" cx="1.4" cy="30" r="0.1"/>
<circle fill="none" cx="10.1" cy="30" r="0.1"/>
<circle fill="none" cx="18.9" cy="30" r="0.1"/>
</g></g><rect stroke="none" stroke-width="0" fill="#FFFFFF" x="0" y="0" width="0" height="0" transform="translate(31.9,29.9)"/><path stroke="#000000" fill="none" d=""/><text font-family="OpenSansCondensedLight" font-size="14pt" fill="black" transform="translate(31.9,29.9)"/><rect stroke-width="0" fill="none" width="47.9" height="27.6" transform="translate(2,1.2)"/><text font-family="OpenSansCondensedLight" font-size="14pt" fill="black" transform="translate(2,1.2)" text-anchor="middle"><tspan x="24" y="20.1"> </tspan></text><path stroke="#000000" fill="none" transform="translate(2,1.2)" d="M 0 0"/></g><g transform="translate(115,207)"><g><g>
<rect y="0" fill="#FFFFFF" width="30.2" height="30.2" stroke="#000000" stroke-dasharray="none"/>
<rect x="2.1" y="2.3" fill="none" width="26" height="25.7"/>
<circle fill="none" cx="15.1" cy="0" r="0.1"/>
<circle fill="none" cx="23.5" cy="0" r="0.1"/>
<circle fill="none" cx="30.2" cy="7.3" r="0.1"/>
<circle fill="none" cx="30.2" cy="14.7" r="0.1"/>
<circle fill="none" cx="30.2" cy="23" r="0.1"/>
<circle fill="none" cx="23.5" cy="30.2" r="0.1"/>
<circle fill="none" cx="15.1" cy="30.2" r="0.1"/>
<circle fill="none" cx="7.6" cy="30.2" r="0.1"/>
<circle fill="none" cx="0" cy="23" r="0.1"/>
<circle fill="none" cx="0" cy="14.7" r="0.1"/>
<circle fill="none" cx="0" cy="7.3" r="0.1"/>
<circle fill="none" cx="7.7" cy="0" r="0.1"/>
</g></g><rect stroke="none" stroke-width="0" fill="#FFFFFF" x="0" y="0" width="0" height="0" transform="translate(30.1,14.6)"/><path stroke="#000000" fill="none" d=""/><text font-family="OpenSansCondensedLight" font-size="14pt" fill="black" transform="translate(30.1,14.6)"/><rect stroke-width="0" fill="none" width="26" height="25.7" transform="translate(2.1,2.3)"/><text font-family="OpenSansCondensedLight" font-size="14pt" fill="black" text-decoration="none" transform="translate(2.1,2.3)" text-anchor="middle"><tspan x="13" y="19.2">106</tspan></text><path stroke="#000000" fill="none" transform="translate(2.1,2.3)"/></g><g transform="translate(59,325)"><g transform="rotate(90,170.5,36)"><g>
<g fill="#FFFFFF">
    <rect y="0" width="341" height="64.8"/>
</g>
<g stroke="#000000" stroke-dasharray="none">
    <line fill="none" stroke-linejoin="round" x1="341" y1="64.8" x2="3.9" y2="64.8"/>
</g>
<polygon points="15.8,57.6 18.3,58.8 5.3,64.8 18.3,70.7 15.8,72 0,64.8"/>
<rect x="13.3" y="2.5" fill="none" width="314.3" height="59.7"/>
<circle fill="none" cx="181.2" cy="64.8" r="0.1"/>
<circle fill="none" cx="238.6" cy="64.8" r="0.1"/>
<circle fill="none" cx="296" cy="64.7" r="0.1"/>
<circle fill="none" cx="324.4" cy="64.7" r="0.1"/>
<circle fill="none" cx="267.2" cy="64.8" r="0.1"/>
<circle fill="none" cx="209.8" cy="64.8" r="0.1"/>
<circle fill="none" cx="152.5" cy="64.8" r="0.1"/>
<circle fill="none" cx="95.3" cy="64.8" r="0.1"/>
<circle fill="none" cx="37.7" cy="64.8" r="0.1"/>
<circle fill="none" cx="9" cy="64.8" r="0.1"/>
<circle fill="none" cx="66.4" cy="64.8" r="0.1"/>
<circle fill="none" cx="123.8" cy="64.8" r="0.1"/>
</g></g><rect stroke="none" stroke-width="0" fill="#FFFFFF" x="0" y="0" width="0" height="0" transform="translate(141.7,161.4)"/><path stroke="#000000" fill="none" d=""/><text font-family="OpenSansCondensedLight" font-size="14pt" fill="black" transform="translate(141.7,161.4)"/><rect stroke-width="0" fill="none" width="59.7" height="314.3" transform="translate(144.3,-121.2)"/><text font-family="OpenSansCondensedLight" font-size="14pt" fill="black" transform="translate(144.3,-121.2)" text-anchor="middle"><tspan x="29.9" y="163.5"> </tspan></text><path stroke="#000000" fill="none" transform="translate(144.3,-121.2)" d="M 0 0"/></g><g transform="translate(219,239)"><g><g>
<g fill="#FFFFFF">
    <rect y="0" width="51" height="45"/>
</g>
<g stroke="#000000" stroke-dasharray="none">
    <line fill="none" stroke-linejoin="round" x1="0" y1="45" x2="50.4" y2="45"/>
</g>
<g>
    <polygon points="48.6,50 48.3,49.1 50.2,45 48.3,40.9 48.6,40 51,45"/>
</g>
<rect x="2" y="1.8" fill="none" width="47" height="41.5"/>
<circle fill="none" cx="27.1" cy="45" r="0.1"/>
<circle fill="none" cx="35.7" cy="45" r="0.1"/>
<circle fill="none" cx="44.3" cy="44.9" r="0.1"/>
<circle fill="none" cx="48.5" cy="44.9" r="0.1"/>
<circle fill="none" cx="40" cy="45" r="0.1"/>
<circle fill="none" cx="31.4" cy="45" r="0.1"/>
<circle fill="none" cx="22.8" cy="45" r="0.1"/>
<circle fill="none" cx="14.3" cy="45" r="0.1"/>
<circle fill="none" cx="5.6" cy="45" r="0.1"/>
<circle fill="none" cx="1.3" cy="45" r="0.1"/>
<circle fill="none" cx="9.9" cy="45" r="0.1"/>
<circle fill="none" cx="18.5" cy="45" r="0.1"/>
</g></g><rect stroke="none" stroke-width="0" fill="#FFFFFF" x="0" y="0" width="0" height="0" transform="translate(14.2,44.9)"/><path stroke="#000000" fill="none" d=""/><text font-family="OpenSansCondensedLight" font-size="14pt" fill="black" transform="translate(14.2,44.9)"/><rect stroke-width="0" fill="none" width="47" height="41.5" transform="translate(2,1.8)"/><text font-family="OpenSansCondensedLight" font-size="14pt" fill="black" transform="translate(2,1.8)" text-anchor="middle"><tspan x="23.5" y="27"> </tspan></text><path stroke="#000000" fill="none" transform="translate(2,1.8)" d="M 0 0"/></g><g transform="translate(211,279)"><g transform="rotate(180,25.5,25)"><g>
<g fill="#FFFFFF">
    <rect y="0" width="51" height="45"/>
</g>
<g stroke="#000000" stroke-dasharray="none">
    <line fill="none" stroke-linejoin="round" x1="0" y1="45" x2="50.4" y2="45"/>
</g>
<g>
    <polygon points="48.6,50 48.3,49.1 50.2,45 48.3,40.9 48.6,40 51,45"/>
</g>
<rect x="2" y="1.8" fill="none" width="47" height="41.5"/>
<circle fill="none" cx="27.1" cy="45" r="0.1"/>
<circle fill="none" cx="35.7" cy="45" r="0.1"/>
<circle fill="none" cx="44.3" cy="44.9" r="0.1"/>
<circle fill="none" cx="48.5" cy="44.9" r="0.1"/>
<circle fill="none" cx="40" cy="45" r="0.1"/>
<circle fill="none" cx="31.4" cy="45" r="0.1"/>
<circle fill="none" cx="22.8" cy="45" r="0.1"/>
<circle fill="none" cx="14.3" cy="45" r="0.1"/>
<circle fill="none" cx="5.6" cy="45" r="0.1"/>
<circle fill="none" cx="1.3" cy="45" r="0.1"/>
<circle fill="none" cx="9.9" cy="45" r="0.1"/>
<circle fill="none" cx="18.5" cy="45" r="0.1"/>
</g></g><rect stroke="none" stroke-width="0" fill="#FFFFFF" x="0" y="0" width="0" height="0" transform="translate(15.2,4.9)"/><path stroke="#000000" fill="none" d=""/><text font-family="OpenSansCondensedLight" font-size="14pt" fill="black" transform="translate(15.2,4.9)"/><rect stroke-width="0" fill="none" width="47" height="41.5" transform="translate(2,6.8)"/><text font-family="OpenSansCondensedLight" font-size="14pt" fill="black" transform="translate(2,6.8)" text-anchor="middle"><tspan x="23.5" y="27"> </tspan></text><path stroke="#000000" fill="none" transform="translate(2,6.8)" d="M 0 0"/></g><g transform="translate(221,321)"><g><g>
<g fill="#FFFFFF">
    <rect y="0" width="51" height="45"/>
</g>
<g stroke="#000000" stroke-dasharray="none">
    <line fill="none" stroke-linejoin="round" x1="0" y1="45" x2="50.4" y2="45"/>
</g>
<g>
    <polygon points="48.6,50 48.3,49.1 50.2,45 48.3,40.9 48.6,40 51,45"/>
</g>
<rect x="2" y="1.8" fill="none" width="47" height="41.5"/>
<circle fill="none" cx="27.1" cy="45" r="0.1"/>
<circle fill="none" cx="35.7" cy="45" r="0.1"/>
<circle fill="none" cx="44.3" cy="44.9" r="0.1"/>
<circle fill="none" cx="48.5" cy="44.9" r="0.1"/>
<circle fill="none" cx="40" cy="45" r="0.1"/>
<circle fill="none" cx="31.4" cy="45" r="0.1"/>
<circle fill="none" cx="22.8" cy="45" r="0.1"/>
<circle fill="none" cx="14.3" cy="45" r="0.1"/>
<circle fill="none" cx="5.6" cy="45" r="0.1"/>
<circle fill="none" cx="1.3" cy="45" r="0.1"/>
<circle fill="none" cx="9.9" cy="45" r="0.1"/>
<circle fill="none" cx="18.5" cy="45" r="0.1"/>
</g></g><rect stroke="none" stroke-width="0" fill="#FFFFFF" x="0" y="0" width="0" height="0" transform="translate(14.2,44.9)"/><path stroke="#000000" fill="none" d=""/><text font-family="OpenSansCondensedLight" font-size="14pt" fill="black" transform="translate(14.2,44.9)"/><rect stroke-width="0" fill="none" width="47" height="41.5" transform="translate(2,1.8)"/><text font-family="OpenSansCondensedLight" font-size="14pt" fill="black" transform="translate(2,1.8)" text-anchor="middle"><tspan x="23.5" y="27"> </tspan></text><path stroke="#000000" fill="none" transform="translate(2,1.8)" d="M 0 0"/></g><g transform="translate(222,421)"><g><g>
<g fill="#FFFFFF">
    <rect y="0" width="51" height="45"/>
</g>
<g stroke="#000000" stroke-dasharray="none">
    <line fill="none" stroke-linejoin="round" x1="0" y1="45" x2="50.4" y2="45"/>
</g>
<g>
    <polygon points="48.6,50 48.3,49.1 50.2,45 48.3,40.9 48.6,40 51,45"/>
</g>
<rect x="2" y="1.8" fill="none" width="47" height="41.5"/>
<circle fill="none" cx="27.1" cy="45" r="0.1"/>
<circle fill="none" cx="35.7" cy="45" r="0.1"/>
<circle fill="none" cx="44.3" cy="44.9" r="0.1"/>
<circle fill="none" cx="48.5" cy="44.9" r="0.1"/>
<circle fill="none" cx="40" cy="45" r="0.1"/>
<circle fill="none" cx="31.4" cy="45" r="0.1"/>
<circle fill="none" cx="22.8" cy="45" r="0.1"/>
<circle fill="none" cx="14.3" cy="45" r="0.1"/>
<circle fill="none" cx="5.6" cy="45" r="0.1"/>
<circle fill="none" cx="1.3" cy="45" r="0.1"/>
<circle fill="none" cx="9.9" cy="45" r="0.1"/>
<circle fill="none" cx="18.5" cy="45" r="0.1"/>
</g></g><rect stroke="none" stroke-width="0" fill="#FFFFFF" x="0" y="0" width="0" height="0" transform="translate(14.2,44.9)"/><path stroke="#000000" fill="none" d=""/><text font-family="OpenSansCondensedLight" font-size="14pt" fill="black" transform="translate(14.2,44.9)"/><rect stroke-width="0" fill="none" width="47" height="41.5" transform="translate(2,1.8)"/><text font-family="OpenSansCondensedLight" font-size="14pt" fill="black" transform="translate(2,1.8)" text-anchor="middle"><tspan x="23.5" y="27"> </tspan></text><path stroke="#000000" fill="none" transform="translate(2,1.8)" d="M 0 0"/></g><g transform="translate(225,515)"><g><g>
<g fill="#FFFFFF">
    <rect y="0" width="51" height="45"/>
</g>
<g stroke="#000000" stroke-dasharray="none">
    <line fill="none" stroke-linejoin="round" x1="0" y1="45" x2="50.4" y2="45"/>
</g>
<g>
    <polygon points="48.6,50 48.3,49.1 50.2,45 48.3,40.9 48.6,40 51,45"/>
</g>
<rect x="2" y="1.8" fill="none" width="47" height="41.5"/>
<circle fill="none" cx="27.1" cy="45" r="0.1"/>
<circle fill="none" cx="35.7" cy="45" r="0.1"/>
<circle fill="none" cx="44.3" cy="44.9" r="0.1"/>
<circle fill="none" cx="48.5" cy="44.9" r="0.1"/>
<circle fill="none" cx="40" cy="45" r="0.1"/>
<circle fill="none" cx="31.4" cy="45" r="0.1"/>
<circle fill="none" cx="22.8" cy="45" r="0.1"/>
<circle fill="none" cx="14.3" cy="45" r="0.1"/>
<circle fill="none" cx="5.6" cy="45" r="0.1"/>
<circle fill="none" cx="1.3" cy="45" r="0.1"/>
<circle fill="none" cx="9.9" cy="45" r="0.1"/>
<circle fill="none" cx="18.5" cy="45" r="0.1"/>
</g></g><rect stroke="none" stroke-width="0" fill="#FFFFFF" x="0" y="0" width="0" height="0" transform="translate(14.2,44.9)"/><path stroke="#000000" fill="none" d=""/><text font-family="OpenSansCondensedLight" font-size="14pt" fill="black" transform="translate(14.2,44.9)"/><rect stroke-width="0" fill="none" width="47" height="41.5" transform="translate(2,1.8)"/><text font-family="OpenSansCondensedLight" font-size="14pt" fill="black" transform="translate(2,1.8)" text-anchor="middle"><tspan x="23.5" y="27"> </tspan></text><path stroke="#000000" fill="none" transform="translate(2,1.8)" d="M 0 0"/></g><g transform="translate(222,612)"><g><g>
<g fill="#FFFFFF">
    <rect y="0" width="51" height="45"/>
</g>
<g stroke="#000000" stroke-dasharray="none">
    <line fill="none" stroke-linejoin="round" x1="0" y1="45" x2="50.4" y2="45"/>
</g>
<g>
    <polygon points="48.6,50 48.3,49.1 50.2,45 48.3,40.9 48.6,40 51,45"/>
</g>
<rect x="2" y="1.8" fill="none" width="47" height="41.5"/>
<circle fill="none" cx="27.1" cy="45" r="0.1"/>
<circle fill="none" cx="35.7" cy="45" r="0.1"/>
<circle fill="none" cx="44.3" cy="44.9" r="0.1"/>
<circle fill="none" cx="48.5" cy="44.9" r="0.1"/>
<circle fill="none" cx="40" cy="45" r="0.1"/>
<circle fill="none" cx="31.4" cy="45" r="0.1"/>
<circle fill="none" cx="22.8" cy="45" r="0.1"/>
<circle fill="none" cx="14.3" cy="45" r="0.1"/>
<circle fill="none" cx="5.6" cy="45" r="0.1"/>
<circle fill="none" cx="1.3" cy="45" r="0.1"/>
<circle fill="none" cx="9.9" cy="45" r="0.1"/>
<circle fill="none" cx="18.5" cy="45" r="0.1"/>
</g></g><rect stroke="none" stroke-width="0" fill="#FFFFFF" x="0" y="0" width="0" height="0" transform="translate(14.2,44.9)"/><path stroke="#000000" fill="none" d=""/><text font-family="OpenSansCondensedLight" font-size="14pt" fill="black" transform="translate(14.2,44.9)"/><rect stroke-width="0" fill="none" width="47" height="41.5" transform="translate(2,1.8)"/><text font-family="OpenSansCondensedLight" font-size="14pt" fill="black" transform="translate(2,1.8)" text-anchor="middle"><tspan x="23.5" y="27"> </tspan></text><path stroke="#000000" fill="none" transform="translate(2,1.8)" d="M 0 0"/></g><g transform="translate(213,361)"><g transform="rotate(180,25.5,25)"><g>
<g fill="#FFFFFF">
    <rect y="0" width="51" height="45"/>
</g>
<g stroke="#000000" stroke-dasharray="none">
    <line fill="none" stroke-linejoin="round" x1="0" y1="45" x2="50.4" y2="45"/>
</g>
<g>
    <polygon points="48.6,50 48.3,49.1 50.2,45 48.3,40.9 48.6,40 51,45"/>
</g>
<rect x="2" y="1.8" fill="none" width="47" height="41.5"/>
<circle fill="none" cx="27.1" cy="45" r="0.1"/>
<circle fill="none" cx="35.7" cy="45" r="0.1"/>
<circle fill="none" cx="44.3" cy="44.9" r="0.1"/>
<circle fill="none" cx="48.5" cy="44.9" r="0.1"/>
<circle fill="none" cx="40" cy="45" r="0.1"/>
<circle fill="none" cx="31.4" cy="45" r="0.1"/>
<circle fill="none" cx="22.8" cy="45" r="0.1"/>
<circle fill="none" cx="14.3" cy="45" r="0.1"/>
<circle fill="none" cx="5.6" cy="45" r="0.1"/>
<circle fill="none" cx="1.3" cy="45" r="0.1"/>
<circle fill="none" cx="9.9" cy="45" r="0.1"/>
<circle fill="none" cx="18.5" cy="45" r="0.1"/>
</g></g><rect stroke="none" stroke-width="0" fill="#FFFFFF" x="0" y="0" width="0" height="0" transform="translate(15.2,4.9)"/><path stroke="#000000" fill="none" d=""/><text font-family="OpenSansCondensedLight" font-size="14pt" fill="black" transform="translate(15.2,4.9)"/><rect stroke-width="0" fill="none" width="47" height="41.5" transform="translate(2,6.8)"/><text font-family="OpenSansCondensedLight" font-size="14pt" fill="black" transform="translate(2,6.8)" text-anchor="middle"><tspan x="23.5" y="27"> </tspan></text><path stroke="#000000" fill="none" transform="translate(2,6.8)" d="M 0 0"/></g><g transform="translate(214,461)"><g transform="rotate(180,25.5,25)"><g>
<g fill="#FFFFFF">
    <rect y="0" width="51" height="45"/>
</g>
<g stroke="#000000" stroke-dasharray="none">
    <line fill="none" stroke-linejoin="round" x1="0" y1="45" x2="50.4" y2="45"/>
</g>
<g>
    <polygon points="48.6,50 48.3,49.1 50.2,45 48.3,40.9 48.6,40 51,45"/>
</g>
<rect x="2" y="1.8" fill="none" width="47" height="41.5"/>
<circle fill="none" cx="27.1" cy="45" r="0.1"/>
<circle fill="none" cx="35.7" cy="45" r="0.1"/>
<circle fill="none" cx="44.3" cy="44.9" r="0.1"/>
<circle fill="none" cx="48.5" cy="44.9" r="0.1"/>
<circle fill="none" cx="40" cy="45" r="0.1"/>
<circle fill="none" cx="31.4" cy="45" r="0.1"/>
<circle fill="none" cx="22.8" cy="45" r="0.1"/>
<circle fill="none" cx="14.3" cy="45" r="0.1"/>
<circle fill="none" cx="5.6" cy="45" r="0.1"/>
<circle fill="none" cx="1.3" cy="45" r="0.1"/>
<circle fill="none" cx="9.9" cy="45" r="0.1"/>
<circle fill="none" cx="18.5" cy="45" r="0.1"/>
</g></g><rect stroke="none" stroke-width="0" fill="#FFFFFF" x="0" y="0" width="0" height="0" transform="translate(15.2,4.9)"/><path stroke="#000000" fill="none" d=""/><text font-family="OpenSansCondensedLight" font-size="14pt" fill="black" transform="translate(15.2,4.9)"/><rect stroke-width="0" fill="none" width="47" height="41.5" transform="translate(2,6.8)"/><text font-family="OpenSansCondensedLight" font-size="14pt" fill="black" transform="translate(2,6.8)" text-anchor="middle"><tspan x="23.5" y="27"> </tspan></text><path stroke="#000000" fill="none" transform="translate(2,6.8)" d="M 0 0"/></g><g transform="translate(217,555)"><g transform="rotate(180,25.5,25)"><g>
<g fill="#FFFFFF">
    <rect y="0" width="51" height="45"/>
</g>
<g stroke="#000000" stroke-dasharray="none">
    <line fill="none" stroke-linejoin="round" x1="0" y1="45" x2="50.4" y2="45"/>
</g>
<g>
    <polygon points="48.6,50 48.3,49.1 50.2,45 48.3,40.9 48.6,40 51,45"/>
</g>
<rect x="2" y="1.8" fill="none" width="47" height="41.5"/>
<circle fill="none" cx="27.1" cy="45" r="0.1"/>
<circle fill="none" cx="35.7" cy="45" r="0.1"/>
<circle fill="none" cx="44.3" cy="44.9" r="0.1"/>
<circle fill="none" cx="48.5" cy="44.9" r="0.1"/>
<circle fill="none" cx="40" cy="45" r="0.1"/>
<circle fill="none" cx="31.4" cy="45" r="0.1"/>
<circle fill="none" cx="22.8" cy="45" r="0.1"/>
<circle fill="none" cx="14.3" cy="45" r="0.1"/>
<circle fill="none" cx="5.6" cy="45" r="0.1"/>
<circle fill="none" cx="1.3" cy="45" r="0.1"/>
<circle fill="none" cx="9.9" cy="45" r="0.1"/>
<circle fill="none" cx="18.5" cy="45" r="0.1"/>
</g></g><rect stroke="none" stroke-width="0" fill="#FFFFFF" x="0" y="0" width="0" height="0" transform="translate(15.2,4.9)"/><path stroke="#000000" fill="none" d=""/><text font-family="OpenSansCondensedLight" font-size="14pt" fill="black" transform="translate(15.2,4.9)"/><rect stroke-width="0" fill="none" width="47" height="41.5" transform="translate(2,6.8)"/><text font-family="OpenSansCondensedLight" font-size="14pt" fill="black" transform="translate(2,6.8)" text-anchor="middle"><tspan x="23.5" y="27"> </tspan></text><path stroke="#000000" fill="none" transform="translate(2,6.8)" d="M 0 0"/></g><g transform="translate(214,652)"><g transform="rotate(180,25.5,25)"><g>
<g fill="#FFFFFF">
    <rect y="0" width="51" height="45"/>
</g>
<g stroke="#000000" stroke-dasharray="none">
    <line fill="none" stroke-linejoin="round" x1="0" y1="45" x2="50.4" y2="45"/>
</g>
<g>
    <polygon points="48.6,50 48.3,49.1 50.2,45 48.3,40.9 48.6,40 51,45"/>
</g>
<rect x="2" y="1.8" fill="none" width="47" height="41.5"/>
<circle fill="none" cx="27.1" cy="45" r="0.1"/>
<circle fill="none" cx="35.7" cy="45" r="0.1"/>
<circle fill="none" cx="44.3" cy="44.9" r="0.1"/>
<circle fill="none" cx="48.5" cy="44.9" r="0.1"/>
<circle fill="none" cx="40" cy="45" r="0.1"/>
<circle fill="none" cx="31.4" cy="45" r="0.1"/>
<circle fill="none" cx="22.8" cy="45" r="0.1"/>
<circle fill="none" cx="14.3" cy="45" r="0.1"/>
<circle fill="none" cx="5.6" cy="45" r="0.1"/>
<circle fill="none" cx="1.3" cy="45" r="0.1"/>
<circle fill="none" cx="9.9" cy="45" r="0.1"/>
<circle fill="none" cx="18.5" cy="45" r="0.1"/>
</g></g><rect stroke="none" stroke-width="0" fill="#FFFFFF" x="0" y="0" width="0" height="0" transform="translate(15.2,4.9)"/><path stroke="#000000" fill="none" d=""/><text font-family="OpenSansCondensedLight" font-size="14pt" fill="black" transform="translate(15.2,4.9)"/><rect stroke-width="0" fill="none" width="47" height="41.5" transform="translate(2,6.8)"/><text font-family="OpenSansCondensedLight" font-size="14pt" fill="black" transform="translate(2,6.8)" text-anchor="middle"><tspan x="23.5" y="27"> </tspan></text><path stroke="#000000" fill="none" transform="translate(2,6.8)" d="M 0 0"/></g></g><defs/></svg>